<?xml version="1.0" encoding="UTF-8"?>
<svg version="1.1" xmlns="http://www.w3.org/2000/svg" width="64" height="64" viewBox="0 0 64 64">
    <path
            d="M0 0 C4.43070093 3.02516345 7.32479366 7.10775767 8.859375 12.26953125 C8.859375 13.25953125 8.859375 14.24953125 8.859375 15.26953125 C9.601875 15.49640625 10.344375 15.72328125 11.109375 15.95703125 C14.66449583 17.65379347 15.9428468 18.79138747 17.859375 22.26953125 C18.58940819 26.70380692 18.8981135 31.11542599 16.90625 35.24609375 C14.34143279 38.54139687 11.7835049 40.1104698 7.859375 41.26953125 C4.57039368 41.57822943 1.29403264 41.59743453 -2.0078125 41.60546875 C-3.43723679 41.61545395 -3.43723679 41.61545395 -4.89553833 41.62564087 C-6.90771561 41.63574714 -8.91992627 41.64045852 -10.93212891 41.64013672 C-13.99828762 41.64450654 -17.06300229 41.68083855 -20.12890625 41.71875 C-22.08853677 41.72461938 -24.04817409 41.72858796 -26.0078125 41.73046875 C-26.91844452 41.74483978 -27.82907654 41.75921082 -28.76730347 41.77401733 C-34.75082741 41.73141583 -38.22403496 40.72536615 -43.140625 37.26953125 C-46.79022063 33.38447784 -46.6345086 29.03099167 -46.50390625 23.9375 C-45.97267754 20.03611067 -44.74896442 18.18473413 -42.140625 15.26953125 C-41.480625 14.93953125 -40.820625 14.60953125 -40.140625 14.26953125 C-39.46 12.59890625 -39.46 12.59890625 -38.765625 10.89453125 C-36.51159274 5.86630544 -36.51159274 5.86630544 -33.140625 4.26953125 C-31.66521747 4.0896035 -30.18496881 3.94753151 -28.703125 3.83203125 C-24.32566499 3.48870105 -22.4465042 2.21801811 -19.140625 -0.73046875 C-12.27419954 -3.71587112 -6.50506812 -3.56770209 0 0 Z M-19.140625 3.26953125 C-21.13478903 5.27912687 -21.13478903 5.27912687 -22.140625 7.26953125 C-21.150625 8.75453125 -21.150625 8.75453125 -20.140625 10.26953125 C-19.75562609 11.92502656 -19.41269365 13.59177455 -19.140625 15.26953125 C-20.130625 15.26953125 -21.120625 15.26953125 -22.140625 15.26953125 C-22.24375 14.50640625 -22.346875 13.74328125 -22.453125 12.95703125 C-23.2087866 10.00308136 -23.60276883 8.93226461 -26.140625 7.26953125 C-29.09783128 6.60272757 -29.09783128 6.60272757 -32.140625 7.26953125 C-34.5816045 9.64270576 -35.90541335 11.66680141 -37.140625 14.83203125 C-38.31493454 17.69441076 -39.9007409 19.1741558 -42.140625 21.26953125 C-43.75232888 24.49293902 -43.73605051 27.78395044 -43.140625 31.26953125 C-40.26713872 35.04611321 -37.62566897 36.88726165 -33.140625 38.26953125 C-30.20336285 38.56357212 -27.28227571 38.57363847 -24.33203125 38.5703125 C-23.48769028 38.57459763 -22.6433493 38.57888275 -21.77342224 38.58329773 C-19.99243057 38.58902585 -18.2114155 38.5895525 -16.43041992 38.58520508 C-13.71557448 38.58204574 -11.00182021 38.60552043 -8.28710938 38.63085938 C-6.5520847 38.6331327 -4.81705711 38.63383571 -3.08203125 38.6328125 C-2.27560684 38.64202225 -1.46918243 38.65123199 -0.63832092 38.66072083 C5.11042161 38.61386544 9.38676906 37.57729679 13.734375 33.51953125 C15.40423597 30.17980931 15.36805176 27.95743775 14.859375 24.26953125 C12.72828744 20.62605897 11.50978974 18.84634844 7.5234375 17.453125 C5.30375373 16.95247077 3.11609169 16.55469371 0.859375 16.26953125 C2.179375 15.60953125 3.499375 14.94953125 4.859375 14.26953125 C4.59615971 10.49677879 4.10713805 8.58287863 1.734375 5.58203125 C-5.25020192 -0.03599801 -11.16381676 -0.70225452 -19.140625 3.26953125 Z "
            fill="currentColor"
            transform="translate(46.140625,12.73046875)"/>
</svg>
